<svg width="135" height="80" viewBox="0 0 135 80" fill="none" xmlns="http://www.w3.org/2000/svg">
<path d="M75.3244 4.03929C72.2264 1.79836 67.9034 2.45789 65.6145 5.52066L34.538 47.105C32.2592 50.1543 32.8349 54.4657 35.834 56.8102L52.8766 70.1329C54.1076 71.0952 55.6252 71.618 57.1878 71.618H66.2068C68.4289 71.618 70.519 70.563 71.8386 68.7753L100.007 30.616C102.318 27.4843 101.631 23.0683 98.4775 20.787L75.3244 4.03929Z" fill="#D9D9D9"/>
<path fill-rule="evenodd" clip-rule="evenodd" d="M46.5518 30.9033L81.1365 56.2674L99.9612 31.2712C102.619 27.7419 101.889 22.7585 98.3294 20.1406L76.6696 4.20897C73.1105 1.59106 68.0705 2.32994 65.4125 5.85929L46.5518 30.9033Z" fill="url(#paint0_linear_5_9)"/>
<path d="M64.1921 75C39.1589 75 10.9669 78.3333 0 80H135C121.828 78.3333 89.2252 75 64.1921 75Z" fill="#00D1FF"/>
<defs>
<linearGradient id="paint0_linear_5_9" x1="58.1126" y1="40.4877" x2="87.914" y2="15.1847" gradientUnits="userSpaceOnUse">
<stop stop-color="#0029FF"/>
<stop offset="1" stop-color="#00D1FF"/>
</linearGradient>
</defs>
</svg>
