<svg width="101" height="101" viewBox="0 0 101 101" fill="none" xmlns="http://www.w3.org/2000/svg">
<path fill-rule="evenodd" clip-rule="evenodd" d="M0 26C0 11.6406 11.6406 0 26 0H75C89.3594 0 101 11.6406 101 26V75C101 89.3594 89.3594 101 75 101H26C11.6406 101 0 89.3594 0 75V26ZM8 26C8 16.0589 16.0589 8 26 8H75C84.9411 8 93 16.0589 93 26V75C93 84.9411 84.9411 93 75 93H26C16.0589 93 8 84.9411 8 75V26ZM32.47 27.47H32.47V40.73H50.15V27.47H60.5368V27.4786C60.6467 27.4729 60.7573 27.47 60.8684 27.47C64.7132 27.47 67.8299 30.9331 67.8299 35.205C67.8299 39.4769 64.7132 42.94 60.8684 42.94C60.7573 42.94 60.6467 42.9371 60.5368 42.9314V42.94L52.36 42.94H17V58.41H58.9899V58.3841C59.3561 58.4013 59.7246 58.41 60.0951 58.41C72.9108 58.41 83.3001 48.0207 83.3001 35.205C83.3001 22.3892 72.9108 12 60.0951 12C59.7246 12 59.3561 12.0087 58.9899 12.0258V12H50.15H32.47H32.47V27.47ZM50.15 60.6199H32.47V89.3499H50.15V60.6199Z" fill="url(#paint0_linear_4_112)"/>
<defs>
<linearGradient id="paint0_linear_4_112" x1="27" y1="96" x2="57" y2="4" gradientUnits="userSpaceOnUse">
<stop stop-color="#0029FF"/>
<stop offset="1" stop-color="#00EFFF"/>
</linearGradient>
</defs>
</svg>
