<svg width="27" height="25" viewBox="0 0 27 25" fill="none" xmlns="http://www.w3.org/2000/svg">
<path fill-rule="evenodd" clip-rule="evenodd" d="M6.75 24.3C4.95979 24.3 3.2429 23.5888 1.97703 22.323C0.711159 21.0571 0 19.3402 0 17.55V13.5C0 13.142 0.142232 12.7986 0.395406 12.5454C0.64858 12.2922 0.991958 12.15 1.35 12.15C1.70804 12.15 2.05142 12.2922 2.30459 12.5454C2.55777 12.7986 2.7 13.142 2.7 13.5V17.55C2.7 18.6241 3.1267 19.6543 3.88622 20.4138C4.64574 21.1733 5.67587 21.6 6.75 21.6H20.25C21.3241 21.6 22.3543 21.1733 23.1138 20.4138C23.8733 19.6543 24.3 18.6241 24.3 17.55V13.5C24.3 13.142 24.4422 12.7986 24.6954 12.5454C24.9486 12.2922 25.292 12.15 25.65 12.15C26.008 12.15 26.3514 12.2922 26.6046 12.5454C26.8578 12.7986 27 13.142 27 13.5V17.55C27 19.3402 26.2888 21.0571 25.023 22.323C23.7571 23.5888 22.0402 24.3 20.25 24.3H6.75Z" fill="white"/>
<path fill-rule="evenodd" clip-rule="evenodd" d="M21.2153 9.315C21.3394 9.44179 21.4373 9.59181 21.5034 9.75646C21.5695 9.92112 21.6024 10.0972 21.6004 10.2746C21.5984 10.452 21.5615 10.6273 21.4917 10.7904C21.4219 10.9535 21.3206 11.1013 21.1937 11.2252L15.1187 17.1653C14.8664 17.4118 14.5277 17.5498 14.175 17.5498C13.8223 17.5498 13.4836 17.4118 13.2314 17.1653L7.15636 11.2252C7.02688 11.102 6.92318 10.9542 6.85127 10.7905C6.77937 10.6268 6.74069 10.4505 6.73749 10.2717C6.73429 10.093 6.76662 9.91536 6.83262 9.74921C6.89862 9.58305 6.99696 9.43166 7.12194 9.30382C7.24692 9.17598 7.39605 9.07424 7.56067 9.0045C7.72529 8.93476 7.90212 8.89841 8.0809 8.89757C8.25968 8.89672 8.43685 8.9314 8.60212 8.99958C8.7674 9.06776 8.91748 9.16809 9.04366 9.29475L12.825 12.9924V1.35C12.825 0.991958 12.9672 0.64858 13.2204 0.395406C13.4736 0.142232 13.817 0 14.175 0C14.5331 0 14.8764 0.142232 15.1296 0.395406C15.3828 0.64858 15.525 0.991958 15.525 1.35V12.9924L19.305 9.29475C19.4318 9.17064 19.5818 9.07274 19.7465 9.00665C19.9111 8.94056 20.0872 8.90757 20.2646 8.90958C20.442 8.91158 20.6173 8.94854 20.7804 9.01834C20.9435 9.08814 21.0913 9.1894 21.2153 9.31635V9.315Z" fill="white"/>
</svg>
