<svg width="20" height="20" viewBox="0 0 20 20" fill="none" xmlns="http://www.w3.org/2000/svg">
<path fill-rule="evenodd" clip-rule="evenodd" d="M6 0C2.68628 0 0 2.68629 0 6V14C0 17.3137 2.68628 20 6 20H14C17.3137 20 20 17.3137 20 14V6C20 2.68629 17.3137 0 14 0H6ZM4.86453 9.76143C4.38708 9.28398 4.38708 8.50989 4.86453 8.03242C5.34198 7.55498 6.11609 7.55498 6.59354 8.03242L10.0515 11.4904L13.5095 8.03244C13.9869 7.55499 14.761 7.55499 15.2385 8.03244C15.7159 8.50989 15.7159 9.284 15.2385 9.76144L10.9235 14.0764L10.916 14.0839C10.7118 14.2882 10.4533 14.405 10.187 14.4346C9.83063 14.4741 9.46021 14.3572 9.18698 14.084L9.17871 14.0756L4.86453 9.76143Z" fill="white"/>
</svg>
