<svg width="70" height="93" viewBox="0 0 70 93" fill="none" xmlns="http://www.w3.org/2000/svg">
<path d="M48.2556 74.5336L61.3564 46.3413C68.6111 30.7304 72.2384 22.925 68.5235 19.3448C64.8086 15.7718 57.0503 19.6202 41.5337 27.3241C38.3224 28.9186 36.724 29.7158 35.0016 29.7158C33.2791 29.7158 31.6735 28.9186 28.4694 27.3241C12.9529 19.6202 5.18729 15.7718 1.47967 19.352C-2.24256 22.925 1.39209 30.7304 8.64677 46.3485L21.7475 74.5336C27.4696 86.8397 30.3306 93 35.0016 93C39.6726 93 42.5336 86.847 48.2556 74.5336Z" fill="#6C5CE7"/>
<path fill-rule="evenodd" clip-rule="evenodd" d="M58.7266 19.3614C63.4421 9.13279 65.5126 3.74241 62.7766 1.11168C59.6985 -1.84197 53.2702 1.33934 40.4137 7.70796L40.3802 7.72456C37.7417 9.03155 36.4225 9.68504 35.0013 9.68504C33.5742 9.68504 32.2438 9.02601 29.589 7.70796C16.7324 1.33934 10.298 -1.84198 7.22602 1.11766C4.4849 3.74278 6.55894 9.1317 11.2743 19.3622C15.5348 20.9037 21.1366 23.6834 28.4695 27.3241C31.6735 28.9186 33.2792 29.7158 35.0016 29.7158C36.7168 29.7158 38.309 28.9253 41.4933 27.3442L41.5337 27.3241C48.8668 23.6833 54.467 20.9036 58.7266 19.3614Z" fill="white"/>
</svg>
